<svg width="800" height="800" viewBox="0 0 800 800" fill="none" xmlns="http://www.w3.org/2000/svg">
<g clip-path="url(#clip0_712_47194)">
<rect width="800" height="800" rx="53" fill="#8D38E3"/>
<path d="M412.83 662.651C373.767 662.651 335.854 657.825 299.089 648.175C262.325 638.524 232.454 625.656 209.476 609.572L254.283 508.929C275.882 523.175 300.928 534.664 329.42 543.396C357.913 552.127 385.946 556.493 413.519 556.493C465.908 556.493 492.103 543.396 492.103 517.201C492.103 503.415 484.52 493.304 469.355 486.871C454.649 479.977 430.752 472.854 397.664 465.501C361.359 457.689 331.029 449.417 306.672 440.685C282.316 431.494 261.406 417.018 243.943 397.257C226.48 377.496 217.748 350.842 217.748 317.294C217.748 287.883 225.79 261.458 241.875 238.021C257.959 214.124 281.856 195.282 313.565 181.496C345.734 167.709 385.026 160.816 431.442 160.816C463.151 160.816 494.401 164.492 525.191 171.845C555.981 178.738 583.095 189.078 606.532 202.865L564.483 304.197C518.527 279.381 473.95 266.973 430.752 266.973C403.638 266.973 383.878 271.109 371.47 279.381C359.061 287.193 352.857 297.533 352.857 310.401C352.857 323.269 360.21 332.919 374.916 339.353C389.622 345.787 413.289 352.45 445.918 359.344C482.682 367.156 513.013 375.658 536.91 384.849C561.266 393.581 582.176 407.827 599.639 427.588C617.562 446.889 626.523 473.314 626.523 506.861C626.523 535.813 618.481 562.008 602.396 585.445C586.312 608.883 562.185 627.724 530.016 641.971C497.847 655.757 458.785 662.651 412.83 662.651Z" fill="white"/>
</g>
<defs>
<clipPath id="clip0_712_47194">
<rect width="800" height="800" rx="53" fill="white"/>
</clipPath>
</defs>
</svg>
