<svg width="299" height="178" viewBox="0 0 299 178" fill="none" xmlns="http://www.w3.org/2000/svg">
<path d="M8.08108 4.04412C8.08108 6.27762 6.27207 8.08823 4.04054 8.08823C1.80901 8.08823 0 6.27762 0 4.04412C0 1.81061 1.80901 0 4.04054 0C6.27207 0 8.08108 1.81061 8.08108 4.04412Z" fill="#8D38E3"/>
<path d="M8.08108 28.3088C8.08108 30.5423 6.27207 32.3529 4.04054 32.3529C1.80901 32.3529 0 30.5423 0 28.3088C0 26.0753 1.80901 24.2647 4.04054 24.2647C6.27207 24.2647 8.08108 26.0753 8.08108 28.3088Z" fill="#8D38E3"/>
<path d="M8.08108 52.5735C8.08108 54.807 6.27207 56.6176 4.04054 56.6176C1.80901 56.6176 0 54.807 0 52.5735C0 50.34 1.80901 48.5294 4.04054 48.5294C6.27207 48.5294 8.08108 50.34 8.08108 52.5735Z" fill="#8D38E3"/>
<path d="M8.08108 76.8382C8.08108 79.0717 6.27207 80.8824 4.04054 80.8824C1.80901 80.8824 0 79.0717 0 76.8382C0 74.6047 1.80901 72.7941 4.04054 72.7941C6.27207 72.7941 8.08108 74.6047 8.08108 76.8382Z" fill="#8D38E3"/>
<path d="M8.08108 101.103C8.08108 103.336 6.27207 105.147 4.04054 105.147C1.80901 105.147 0 103.336 0 101.103C0 98.8694 1.80901 97.0588 4.04054 97.0588C6.27207 97.0588 8.08108 98.8694 8.08108 101.103Z" fill="#8D38E3"/>
<path d="M8.08108 125.368C8.08108 127.601 6.27207 129.412 4.04054 129.412C1.80901 129.412 0 127.601 0 125.368C0 123.134 1.80901 121.324 4.04054 121.324C6.27207 121.324 8.08108 123.134 8.08108 125.368Z" fill="#8D38E3"/>
<path d="M8.08108 149.632C8.08108 151.866 6.27207 153.676 4.04054 153.676C1.80901 153.676 0 151.866 0 149.632C0 147.399 1.80901 145.588 4.04054 145.588C6.27207 145.588 8.08108 147.399 8.08108 149.632Z" fill="#8D38E3"/>
<path d="M8.08108 173.897C8.08108 176.131 6.27207 177.941 4.04054 177.941C1.80901 177.941 0 176.131 0 173.897C0 171.664 1.80901 169.853 4.04054 169.853C6.27207 169.853 8.08108 171.664 8.08108 173.897Z" fill="#8D38E3"/>
<path d="M32.3243 4.04412C32.3243 6.27762 30.5153 8.08823 28.2838 8.08823C26.0523 8.08823 24.2432 6.27762 24.2432 4.04412C24.2432 1.81061 26.0523 0 28.2838 0C30.5153 0 32.3243 1.81061 32.3243 4.04412Z" fill="#8D38E3"/>
<path d="M32.3243 28.3088C32.3243 30.5423 30.5153 32.3529 28.2838 32.3529C26.0523 32.3529 24.2432 30.5423 24.2432 28.3088C24.2432 26.0753 26.0523 24.2647 28.2838 24.2647C30.5153 24.2647 32.3243 26.0753 32.3243 28.3088Z" fill="#8D38E3"/>
<path d="M32.3243 52.5735C32.3243 54.807 30.5153 56.6176 28.2838 56.6176C26.0523 56.6176 24.2432 54.807 24.2432 52.5735C24.2432 50.34 26.0523 48.5294 28.2838 48.5294C30.5153 48.5294 32.3243 50.34 32.3243 52.5735Z" fill="#8D38E3"/>
<path d="M32.3243 76.8382C32.3243 79.0717 30.5153 80.8824 28.2838 80.8824C26.0523 80.8824 24.2432 79.0717 24.2432 76.8382C24.2432 74.6047 26.0523 72.7941 28.2838 72.7941C30.5153 72.7941 32.3243 74.6047 32.3243 76.8382Z" fill="#8D38E3"/>
<path d="M32.3243 101.103C32.3243 103.336 30.5153 105.147 28.2838 105.147C26.0523 105.147 24.2432 103.336 24.2432 101.103C24.2432 98.8694 26.0523 97.0588 28.2838 97.0588C30.5153 97.0588 32.3243 98.8694 32.3243 101.103Z" fill="#8D38E3"/>
<path d="M32.3243 125.368C32.3243 127.601 30.5153 129.412 28.2838 129.412C26.0523 129.412 24.2432 127.601 24.2432 125.368C24.2432 123.134 26.0523 121.324 28.2838 121.324C30.5153 121.324 32.3243 123.134 32.3243 125.368Z" fill="#8D38E3"/>
<path d="M32.3243 149.632C32.3243 151.866 30.5153 153.676 28.2838 153.676C26.0523 153.676 24.2432 151.866 24.2432 149.632C24.2432 147.399 26.0523 145.588 28.2838 145.588C30.5153 145.588 32.3243 147.399 32.3243 149.632Z" fill="#8D38E3"/>
<path d="M32.3243 173.897C32.3243 176.131 30.5153 177.941 28.2838 177.941C26.0523 177.941 24.2432 176.131 24.2432 173.897C24.2432 171.664 26.0523 169.853 28.2838 169.853C30.5153 169.853 32.3243 171.664 32.3243 173.897Z" fill="#8D38E3"/>
<path d="M56.5676 4.04412C56.5676 6.27762 54.7586 8.08823 52.527 8.08823C50.2955 8.08823 48.4865 6.27762 48.4865 4.04412C48.4865 1.81061 50.2955 0 52.527 0C54.7586 0 56.5676 1.81061 56.5676 4.04412Z" fill="#8D38E3"/>
<path d="M56.5676 28.3088C56.5676 30.5423 54.7586 32.3529 52.527 32.3529C50.2955 32.3529 48.4865 30.5423 48.4865 28.3088C48.4865 26.0753 50.2955 24.2647 52.527 24.2647C54.7586 24.2647 56.5676 26.0753 56.5676 28.3088Z" fill="#8D38E3"/>
<path d="M56.5676 52.5735C56.5676 54.807 54.7586 56.6176 52.527 56.6176C50.2955 56.6176 48.4865 54.807 48.4865 52.5735C48.4865 50.34 50.2955 48.5294 52.527 48.5294C54.7586 48.5294 56.5676 50.34 56.5676 52.5735Z" fill="#8D38E3"/>
<path d="M56.5676 76.8382C56.5676 79.0717 54.7586 80.8824 52.527 80.8824C50.2955 80.8824 48.4865 79.0717 48.4865 76.8382C48.4865 74.6047 50.2955 72.7941 52.527 72.7941C54.7586 72.7941 56.5676 74.6047 56.5676 76.8382Z" fill="#8D38E3"/>
<path d="M56.5676 101.103C56.5676 103.336 54.7586 105.147 52.527 105.147C50.2955 105.147 48.4865 103.336 48.4865 101.103C48.4865 98.8694 50.2955 97.0588 52.527 97.0588C54.7586 97.0588 56.5676 98.8694 56.5676 101.103Z" fill="#8D38E3"/>
<path d="M56.5676 125.368C56.5676 127.601 54.7586 129.412 52.527 129.412C50.2955 129.412 48.4865 127.601 48.4865 125.368C48.4865 123.134 50.2955 121.324 52.527 121.324C54.7586 121.324 56.5676 123.134 56.5676 125.368Z" fill="#8D38E3"/>
<path d="M56.5676 149.632C56.5676 151.866 54.7586 153.676 52.527 153.676C50.2955 153.676 48.4865 151.866 48.4865 149.632C48.4865 147.399 50.2955 145.588 52.527 145.588C54.7586 145.588 56.5676 147.399 56.5676 149.632Z" fill="#8D38E3"/>
<path d="M56.5676 173.897C56.5676 176.131 54.7586 177.941 52.527 177.941C50.2955 177.941 48.4865 176.131 48.4865 173.897C48.4865 171.664 50.2955 169.853 52.527 169.853C54.7586 169.853 56.5676 171.664 56.5676 173.897Z" fill="#8D38E3"/>
<path d="M80.8108 4.04412C80.8108 6.27762 79.0018 8.08823 76.7703 8.08823C74.5387 8.08823 72.7297 6.27762 72.7297 4.04412C72.7297 1.81061 74.5387 0 76.7703 0C79.0018 0 80.8108 1.81061 80.8108 4.04412Z" fill="#8D38E3"/>
<path d="M80.8108 28.3088C80.8108 30.5423 79.0018 32.3529 76.7703 32.3529C74.5387 32.3529 72.7297 30.5423 72.7297 28.3088C72.7297 26.0753 74.5387 24.2647 76.7703 24.2647C79.0018 24.2647 80.8108 26.0753 80.8108 28.3088Z" fill="#8D38E3"/>
<path d="M80.8108 52.5735C80.8108 54.807 79.0018 56.6176 76.7703 56.6176C74.5387 56.6176 72.7297 54.807 72.7297 52.5735C72.7297 50.34 74.5387 48.5294 76.7703 48.5294C79.0018 48.5294 80.8108 50.34 80.8108 52.5735Z" fill="#8D38E3"/>
<path d="M80.8108 76.8382C80.8108 79.0717 79.0018 80.8824 76.7703 80.8824C74.5387 80.8824 72.7297 79.0717 72.7297 76.8382C72.7297 74.6047 74.5387 72.7941 76.7703 72.7941C79.0018 72.7941 80.8108 74.6047 80.8108 76.8382Z" fill="#8D38E3"/>
<path d="M80.8108 101.103C80.8108 103.336 79.0018 105.147 76.7703 105.147C74.5387 105.147 72.7297 103.336 72.7297 101.103C72.7297 98.8694 74.5387 97.0588 76.7703 97.0588C79.0018 97.0588 80.8108 98.8694 80.8108 101.103Z" fill="#8D38E3"/>
<path d="M80.8108 125.368C80.8108 127.601 79.0018 129.412 76.7703 129.412C74.5387 129.412 72.7297 127.601 72.7297 125.368C72.7297 123.134 74.5387 121.324 76.7703 121.324C79.0018 121.324 80.8108 123.134 80.8108 125.368Z" fill="#8D38E3"/>
<path d="M80.8108 149.632C80.8108 151.866 79.0018 153.676 76.7703 153.676C74.5387 153.676 72.7297 151.866 72.7297 149.632C72.7297 147.399 74.5387 145.588 76.7703 145.588C79.0018 145.588 80.8108 147.399 80.8108 149.632Z" fill="#8D38E3"/>
<path d="M80.8108 173.897C80.8108 176.131 79.0018 177.941 76.7703 177.941C74.5387 177.941 72.7297 176.131 72.7297 173.897C72.7297 171.664 74.5387 169.853 76.7703 169.853C79.0018 169.853 80.8108 171.664 80.8108 173.897Z" fill="#8D38E3"/>
<path d="M105.054 4.04412C105.054 6.27762 103.245 8.08823 101.014 8.08823C98.782 8.08823 96.973 6.27762 96.973 4.04412C96.973 1.81061 98.782 0 101.014 0C103.245 0 105.054 1.81061 105.054 4.04412Z" fill="#8D38E3"/>
<path d="M105.054 28.3088C105.054 30.5423 103.245 32.3529 101.014 32.3529C98.782 32.3529 96.973 30.5423 96.973 28.3088C96.973 26.0753 98.782 24.2647 101.014 24.2647C103.245 24.2647 105.054 26.0753 105.054 28.3088Z" fill="#8D38E3"/>
<path d="M105.054 52.5735C105.054 54.807 103.245 56.6176 101.014 56.6176C98.782 56.6176 96.973 54.807 96.973 52.5735C96.973 50.34 98.782 48.5294 101.014 48.5294C103.245 48.5294 105.054 50.34 105.054 52.5735Z" fill="#8D38E3"/>
<path d="M105.054 76.8382C105.054 79.0717 103.245 80.8824 101.014 80.8824C98.782 80.8824 96.973 79.0717 96.973 76.8382C96.973 74.6047 98.782 72.7941 101.014 72.7941C103.245 72.7941 105.054 74.6047 105.054 76.8382Z" fill="#8D38E3"/>
<path d="M105.054 101.103C105.054 103.336 103.245 105.147 101.014 105.147C98.782 105.147 96.973 103.336 96.973 101.103C96.973 98.8694 98.782 97.0588 101.014 97.0588C103.245 97.0588 105.054 98.8694 105.054 101.103Z" fill="#8D38E3"/>
<path d="M105.054 125.368C105.054 127.601 103.245 129.412 101.014 129.412C98.782 129.412 96.973 127.601 96.973 125.368C96.973 123.134 98.782 121.324 101.014 121.324C103.245 121.324 105.054 123.134 105.054 125.368Z" fill="#8D38E3"/>
<path d="M105.054 149.632C105.054 151.866 103.245 153.676 101.014 153.676C98.782 153.676 96.973 151.866 96.973 149.632C96.973 147.399 98.782 145.588 101.014 145.588C103.245 145.588 105.054 147.399 105.054 149.632Z" fill="#8D38E3"/>
<path d="M105.054 173.897C105.054 176.131 103.245 177.941 101.014 177.941C98.782 177.941 96.973 176.131 96.973 173.897C96.973 171.664 98.782 169.853 101.014 169.853C103.245 169.853 105.054 171.664 105.054 173.897Z" fill="#8D38E3"/>
<path d="M129.297 4.04412C129.297 6.27762 127.488 8.08823 125.257 8.08823C123.025 8.08823 121.216 6.27762 121.216 4.04412C121.216 1.81061 123.025 0 125.257 0C127.488 0 129.297 1.81061 129.297 4.04412Z" fill="#8D38E3"/>
<path d="M129.297 28.3088C129.297 30.5423 127.488 32.3529 125.257 32.3529C123.025 32.3529 121.216 30.5423 121.216 28.3088C121.216 26.0753 123.025 24.2647 125.257 24.2647C127.488 24.2647 129.297 26.0753 129.297 28.3088Z" fill="#8D38E3"/>
<path d="M129.297 52.5735C129.297 54.807 127.488 56.6176 125.257 56.6176C123.025 56.6176 121.216 54.807 121.216 52.5735C121.216 50.34 123.025 48.5294 125.257 48.5294C127.488 48.5294 129.297 50.34 129.297 52.5735Z" fill="#8D38E3"/>
<path d="M129.297 76.8382C129.297 79.0717 127.488 80.8824 125.257 80.8824C123.025 80.8824 121.216 79.0717 121.216 76.8382C121.216 74.6047 123.025 72.7941 125.257 72.7941C127.488 72.7941 129.297 74.6047 129.297 76.8382Z" fill="#8D38E3"/>
<path d="M129.297 101.103C129.297 103.336 127.488 105.147 125.257 105.147C123.025 105.147 121.216 103.336 121.216 101.103C121.216 98.8694 123.025 97.0588 125.257 97.0588C127.488 97.0588 129.297 98.8694 129.297 101.103Z" fill="#8D38E3"/>
<path d="M129.297 125.368C129.297 127.601 127.488 129.412 125.257 129.412C123.025 129.412 121.216 127.601 121.216 125.368C121.216 123.134 123.025 121.324 125.257 121.324C127.488 121.324 129.297 123.134 129.297 125.368Z" fill="#8D38E3"/>
<path d="M129.297 149.632C129.297 151.866 127.488 153.676 125.257 153.676C123.025 153.676 121.216 151.866 121.216 149.632C121.216 147.399 123.025 145.588 125.257 145.588C127.488 145.588 129.297 147.399 129.297 149.632Z" fill="#8D38E3"/>
<path d="M129.297 173.897C129.297 176.131 127.488 177.941 125.257 177.941C123.025 177.941 121.216 176.131 121.216 173.897C121.216 171.664 123.025 169.853 125.257 169.853C127.488 169.853 129.297 171.664 129.297 173.897Z" fill="#8D38E3"/>
<path d="M153.541 4.04412C153.541 6.27762 151.732 8.08823 149.5 8.08823C147.268 8.08823 145.459 6.27762 145.459 4.04412C145.459 1.81061 147.268 0 149.5 0C151.732 0 153.541 1.81061 153.541 4.04412Z" fill="#8D38E3"/>
<path d="M153.541 28.3088C153.541 30.5423 151.732 32.3529 149.5 32.3529C147.268 32.3529 145.459 30.5423 145.459 28.3088C145.459 26.0753 147.268 24.2647 149.5 24.2647C151.732 24.2647 153.541 26.0753 153.541 28.3088Z" fill="#8D38E3"/>
<path d="M153.541 52.5735C153.541 54.807 151.732 56.6176 149.5 56.6176C147.268 56.6176 145.459 54.807 145.459 52.5735C145.459 50.34 147.268 48.5294 149.5 48.5294C151.732 48.5294 153.541 50.34 153.541 52.5735Z" fill="#8D38E3"/>
<path d="M153.541 76.8382C153.541 79.0717 151.732 80.8824 149.5 80.8824C147.268 80.8824 145.459 79.0717 145.459 76.8382C145.459 74.6047 147.268 72.7941 149.5 72.7941C151.732 72.7941 153.541 74.6047 153.541 76.8382Z" fill="#8D38E3"/>
<path d="M153.541 101.103C153.541 103.336 151.732 105.147 149.5 105.147C147.268 105.147 145.459 103.336 145.459 101.103C145.459 98.8694 147.268 97.0588 149.5 97.0588C151.732 97.0588 153.541 98.8694 153.541 101.103Z" fill="#8D38E3"/>
<path d="M153.541 125.368C153.541 127.601 151.732 129.412 149.5 129.412C147.268 129.412 145.459 127.601 145.459 125.368C145.459 123.134 147.268 121.324 149.5 121.324C151.732 121.324 153.541 123.134 153.541 125.368Z" fill="#8D38E3"/>
<path d="M153.541 149.632C153.541 151.866 151.732 153.676 149.5 153.676C147.268 153.676 145.459 151.866 145.459 149.632C145.459 147.399 147.268 145.588 149.5 145.588C151.732 145.588 153.541 147.399 153.541 149.632Z" fill="#8D38E3"/>
<path d="M153.541 173.897C153.541 176.131 151.732 177.941 149.5 177.941C147.268 177.941 145.459 176.131 145.459 173.897C145.459 171.664 147.268 169.853 149.5 169.853C151.732 169.853 153.541 171.664 153.541 173.897Z" fill="#8D38E3"/>
<path d="M177.784 4.04412C177.784 6.27762 175.975 8.08823 173.743 8.08823C171.512 8.08823 169.703 6.27762 169.703 4.04412C169.703 1.81061 171.512 0 173.743 0C175.975 0 177.784 1.81061 177.784 4.04412Z" fill="#8D38E3"/>
<path d="M202.027 4.04412C202.027 6.27762 200.218 8.08823 197.986 8.08823C195.755 8.08823 193.946 6.27762 193.946 4.04412C193.946 1.81061 195.755 0 197.986 0C200.218 0 202.027 1.81061 202.027 4.04412Z" fill="#8D38E3"/>
<path d="M226.27 4.04412C226.27 6.27762 224.461 8.08823 222.23 8.08823C219.998 8.08823 218.189 6.27762 218.189 4.04412C218.189 1.81061 219.998 0 222.23 0C224.461 0 226.27 1.81061 226.27 4.04412Z" fill="#8D38E3"/>
<path d="M250.514 4.04412C250.514 6.27762 248.704 8.08823 246.473 8.08823C244.241 8.08823 242.432 6.27762 242.432 4.04412C242.432 1.81061 244.241 0 246.473 0C248.704 0 250.514 1.81061 250.514 4.04412Z" fill="#8D38E3"/>
<path d="M274.757 4.04412C274.757 6.27762 272.948 8.08823 270.716 8.08823C268.485 8.08823 266.676 6.27762 266.676 4.04412C266.676 1.81061 268.485 0 270.716 0C272.948 0 274.757 1.81061 274.757 4.04412Z" fill="#8D38E3"/>
<path d="M299 4.04412C299 6.27762 297.191 8.08823 294.959 8.08823C292.728 8.08823 290.919 6.27762 290.919 4.04412C290.919 1.81061 292.728 0 294.959 0C297.191 0 299 1.81061 299 4.04412Z" fill="#8D38E3"/>
<path d="M177.784 28.3088C177.784 30.5423 175.975 32.3529 173.743 32.3529C171.512 32.3529 169.703 30.5423 169.703 28.3088C169.703 26.0753 171.512 24.2647 173.743 24.2647C175.975 24.2647 177.784 26.0753 177.784 28.3088Z" fill="#8D38E3"/>
<path d="M202.027 28.3088C202.027 30.5423 200.218 32.3529 197.986 32.3529C195.755 32.3529 193.946 30.5423 193.946 28.3088C193.946 26.0753 195.755 24.2647 197.986 24.2647C200.218 24.2647 202.027 26.0753 202.027 28.3088Z" fill="#8D38E3"/>
<path d="M226.27 28.3088C226.27 30.5423 224.461 32.3529 222.23 32.3529C219.998 32.3529 218.189 30.5423 218.189 28.3088C218.189 26.0753 219.998 24.2647 222.23 24.2647C224.461 24.2647 226.27 26.0753 226.27 28.3088Z" fill="#8D38E3"/>
<path d="M250.514 28.3088C250.514 30.5423 248.704 32.3529 246.473 32.3529C244.241 32.3529 242.432 30.5423 242.432 28.3088C242.432 26.0753 244.241 24.2647 246.473 24.2647C248.704 24.2647 250.514 26.0753 250.514 28.3088Z" fill="#8D38E3"/>
<path d="M274.757 28.3088C274.757 30.5423 272.948 32.3529 270.716 32.3529C268.485 32.3529 266.676 30.5423 266.676 28.3088C266.676 26.0753 268.485 24.2647 270.716 24.2647C272.948 24.2647 274.757 26.0753 274.757 28.3088Z" fill="#8D38E3"/>
<path d="M299 28.3088C299 30.5423 297.191 32.3529 294.959 32.3529C292.728 32.3529 290.919 30.5423 290.919 28.3088C290.919 26.0753 292.728 24.2647 294.959 24.2647C297.191 24.2647 299 26.0753 299 28.3088Z" fill="#8D38E3"/>
<path d="M177.784 52.5735C177.784 54.807 175.975 56.6176 173.743 56.6176C171.512 56.6176 169.703 54.807 169.703 52.5735C169.703 50.34 171.512 48.5294 173.743 48.5294C175.975 48.5294 177.784 50.34 177.784 52.5735Z" fill="#8D38E3"/>
<path d="M202.027 52.5735C202.027 54.807 200.218 56.6176 197.986 56.6176C195.755 56.6176 193.946 54.807 193.946 52.5735C193.946 50.34 195.755 48.5294 197.986 48.5294C200.218 48.5294 202.027 50.34 202.027 52.5735Z" fill="#8D38E3"/>
<path d="M226.27 52.5735C226.27 54.807 224.461 56.6176 222.23 56.6176C219.998 56.6176 218.189 54.807 218.189 52.5735C218.189 50.34 219.998 48.5294 222.23 48.5294C224.461 48.5294 226.27 50.34 226.27 52.5735Z" fill="#8D38E3"/>
<path d="M250.514 52.5735C250.514 54.807 248.704 56.6176 246.473 56.6176C244.241 56.6176 242.432 54.807 242.432 52.5735C242.432 50.34 244.241 48.5294 246.473 48.5294C248.704 48.5294 250.514 50.34 250.514 52.5735Z" fill="#8D38E3"/>
<path d="M274.757 52.5735C274.757 54.807 272.948 56.6176 270.716 56.6176C268.485 56.6176 266.676 54.807 266.676 52.5735C266.676 50.34 268.485 48.5294 270.716 48.5294C272.948 48.5294 274.757 50.34 274.757 52.5735Z" fill="#8D38E3"/>
<path d="M299 52.5735C299 54.807 297.191 56.6176 294.959 56.6176C292.728 56.6176 290.919 54.807 290.919 52.5735C290.919 50.34 292.728 48.5294 294.959 48.5294C297.191 48.5294 299 50.34 299 52.5735Z" fill="#8D38E3"/>
<path d="M177.784 76.8382C177.784 79.0717 175.975 80.8824 173.743 80.8824C171.512 80.8824 169.703 79.0717 169.703 76.8382C169.703 74.6047 171.512 72.7941 173.743 72.7941C175.975 72.7941 177.784 74.6047 177.784 76.8382Z" fill="#8D38E3"/>
<path d="M202.027 76.8382C202.027 79.0717 200.218 80.8824 197.986 80.8824C195.755 80.8824 193.946 79.0717 193.946 76.8382C193.946 74.6047 195.755 72.7941 197.986 72.7941C200.218 72.7941 202.027 74.6047 202.027 76.8382Z" fill="#8D38E3"/>
<path d="M226.27 76.8382C226.27 79.0717 224.461 80.8824 222.23 80.8824C219.998 80.8824 218.189 79.0717 218.189 76.8382C218.189 74.6047 219.998 72.7941 222.23 72.7941C224.461 72.7941 226.27 74.6047 226.27 76.8382Z" fill="#8D38E3"/>
<path d="M250.514 76.8382C250.514 79.0717 248.704 80.8824 246.473 80.8824C244.241 80.8824 242.432 79.0717 242.432 76.8382C242.432 74.6047 244.241 72.7941 246.473 72.7941C248.704 72.7941 250.514 74.6047 250.514 76.8382Z" fill="#8D38E3"/>
<path d="M274.757 76.8382C274.757 79.0717 272.948 80.8824 270.716 80.8824C268.485 80.8824 266.676 79.0717 266.676 76.8382C266.676 74.6047 268.485 72.7941 270.716 72.7941C272.948 72.7941 274.757 74.6047 274.757 76.8382Z" fill="#8D38E3"/>
<path d="M299 76.8382C299 79.0717 297.191 80.8824 294.959 80.8824C292.728 80.8824 290.919 79.0717 290.919 76.8382C290.919 74.6047 292.728 72.7941 294.959 72.7941C297.191 72.7941 299 74.6047 299 76.8382Z" fill="#8D38E3"/>
<path d="M177.784 101.103C177.784 103.336 175.975 105.147 173.743 105.147C171.512 105.147 169.703 103.336 169.703 101.103C169.703 98.8694 171.512 97.0588 173.743 97.0588C175.975 97.0588 177.784 98.8694 177.784 101.103Z" fill="#8D38E3"/>
<path d="M202.027 101.103C202.027 103.336 200.218 105.147 197.986 105.147C195.755 105.147 193.946 103.336 193.946 101.103C193.946 98.8694 195.755 97.0588 197.986 97.0588C200.218 97.0588 202.027 98.8694 202.027 101.103Z" fill="#8D38E3"/>
<path d="M226.27 101.103C226.27 103.336 224.461 105.147 222.23 105.147C219.998 105.147 218.189 103.336 218.189 101.103C218.189 98.8694 219.998 97.0588 222.23 97.0588C224.461 97.0588 226.27 98.8694 226.27 101.103Z" fill="#8D38E3"/>
<path d="M250.514 101.103C250.514 103.336 248.704 105.147 246.473 105.147C244.241 105.147 242.432 103.336 242.432 101.103C242.432 98.8694 244.241 97.0588 246.473 97.0588C248.704 97.0588 250.514 98.8694 250.514 101.103Z" fill="#8D38E3"/>
<path d="M274.757 101.103C274.757 103.336 272.948 105.147 270.716 105.147C268.485 105.147 266.676 103.336 266.676 101.103C266.676 98.8694 268.485 97.0588 270.716 97.0588C272.948 97.0588 274.757 98.8694 274.757 101.103Z" fill="#8D38E3"/>
<path d="M299 101.103C299 103.336 297.191 105.147 294.959 105.147C292.728 105.147 290.919 103.336 290.919 101.103C290.919 98.8694 292.728 97.0588 294.959 97.0588C297.191 97.0588 299 98.8694 299 101.103Z" fill="#8D38E3"/>
<path d="M177.784 125.368C177.784 127.601 175.975 129.412 173.743 129.412C171.512 129.412 169.703 127.601 169.703 125.368C169.703 123.134 171.512 121.324 173.743 121.324C175.975 121.324 177.784 123.134 177.784 125.368Z" fill="#8D38E3"/>
<path d="M202.027 125.368C202.027 127.601 200.218 129.412 197.986 129.412C195.755 129.412 193.946 127.601 193.946 125.368C193.946 123.134 195.755 121.324 197.986 121.324C200.218 121.324 202.027 123.134 202.027 125.368Z" fill="#8D38E3"/>
<path d="M226.27 125.368C226.27 127.601 224.461 129.412 222.23 129.412C219.998 129.412 218.189 127.601 218.189 125.368C218.189 123.134 219.998 121.324 222.23 121.324C224.461 121.324 226.27 123.134 226.27 125.368Z" fill="#8D38E3"/>
<path d="M250.514 125.368C250.514 127.601 248.704 129.412 246.473 129.412C244.241 129.412 242.432 127.601 242.432 125.368C242.432 123.134 244.241 121.324 246.473 121.324C248.704 121.324 250.514 123.134 250.514 125.368Z" fill="#8D38E3"/>
<path d="M274.757 125.368C274.757 127.601 272.948 129.412 270.716 129.412C268.485 129.412 266.676 127.601 266.676 125.368C266.676 123.134 268.485 121.324 270.716 121.324C272.948 121.324 274.757 123.134 274.757 125.368Z" fill="#8D38E3"/>
<path d="M299 125.368C299 127.601 297.191 129.412 294.959 129.412C292.728 129.412 290.919 127.601 290.919 125.368C290.919 123.134 292.728 121.324 294.959 121.324C297.191 121.324 299 123.134 299 125.368Z" fill="#8D38E3"/>
<path d="M177.784 149.632C177.784 151.866 175.975 153.676 173.743 153.676C171.512 153.676 169.703 151.866 169.703 149.632C169.703 147.399 171.512 145.588 173.743 145.588C175.975 145.588 177.784 147.399 177.784 149.632Z" fill="#8D38E3"/>
<path d="M202.027 149.632C202.027 151.866 200.218 153.676 197.986 153.676C195.755 153.676 193.946 151.866 193.946 149.632C193.946 147.399 195.755 145.588 197.986 145.588C200.218 145.588 202.027 147.399 202.027 149.632Z" fill="#8D38E3"/>
<path d="M226.27 149.632C226.27 151.866 224.461 153.676 222.23 153.676C219.998 153.676 218.189 151.866 218.189 149.632C218.189 147.399 219.998 145.588 222.23 145.588C224.461 145.588 226.27 147.399 226.27 149.632Z" fill="#8D38E3"/>
<path d="M250.514 149.632C250.514 151.866 248.704 153.676 246.473 153.676C244.241 153.676 242.432 151.866 242.432 149.632C242.432 147.399 244.241 145.588 246.473 145.588C248.704 145.588 250.514 147.399 250.514 149.632Z" fill="#8D38E3"/>
<path d="M274.757 149.632C274.757 151.866 272.948 153.676 270.716 153.676C268.485 153.676 266.676 151.866 266.676 149.632C266.676 147.399 268.485 145.588 270.716 145.588C272.948 145.588 274.757 147.399 274.757 149.632Z" fill="#8D38E3"/>
<path d="M299 149.632C299 151.866 297.191 153.676 294.959 153.676C292.728 153.676 290.919 151.866 290.919 149.632C290.919 147.399 292.728 145.588 294.959 145.588C297.191 145.588 299 147.399 299 149.632Z" fill="#8D38E3"/>
<path d="M177.784 173.897C177.784 176.131 175.975 177.941 173.743 177.941C171.512 177.941 169.703 176.131 169.703 173.897C169.703 171.664 171.512 169.853 173.743 169.853C175.975 169.853 177.784 171.664 177.784 173.897Z" fill="#8D38E3"/>
<path d="M202.027 173.897C202.027 176.131 200.218 177.941 197.986 177.941C195.755 177.941 193.946 176.131 193.946 173.897C193.946 171.664 195.755 169.853 197.986 169.853C200.218 169.853 202.027 171.664 202.027 173.897Z" fill="#8D38E3"/>
<path d="M226.27 173.897C226.27 176.131 224.461 177.941 222.23 177.941C219.998 177.941 218.189 176.131 218.189 173.897C218.189 171.664 219.998 169.853 222.23 169.853C224.461 169.853 226.27 171.664 226.27 173.897Z" fill="#8D38E3"/>
<path d="M250.514 173.897C250.514 176.131 248.704 177.941 246.473 177.941C244.241 177.941 242.432 176.131 242.432 173.897C242.432 171.664 244.241 169.853 246.473 169.853C248.704 169.853 250.514 171.664 250.514 173.897Z" fill="#8D38E3"/>
<path d="M274.757 173.897C274.757 176.131 272.948 177.941 270.716 177.941C268.485 177.941 266.676 176.131 266.676 173.897C266.676 171.664 268.485 169.853 270.716 169.853C272.948 169.853 274.757 171.664 274.757 173.897Z" fill="#8D38E3"/>
<path d="M299 173.897C299 176.131 297.191 177.941 294.959 177.941C292.728 177.941 290.919 176.131 290.919 173.897C290.919 171.664 292.728 169.853 294.959 169.853C297.191 169.853 299 171.664 299 173.897Z" fill="#8D38E3"/>
</svg>
